<?xml version="1.0" encoding="UTF-8"?>
<!DOCTYPE svg PUBLIC "-//W3C//DTD SVG 1.1//EN" "http://www.w3.org/Graphics/SVG/1.1/DTD/svg11.dtd">
<!-- Creator: CorelDRAW -->
<svg xmlns="http://www.w3.org/2000/svg" xml:space="preserve" width="109.098mm" height="33.5216mm" version="1.1" style="shape-rendering:geometricPrecision; text-rendering:geometricPrecision; image-rendering:optimizeQuality; fill-rule:evenodd; clip-rule:evenodd"
viewBox="0 0 11038.5 3391.71"
 xmlns:xlink="http://www.w3.org/1999/xlink"
 xmlns:xodm="http://www.corel.com/coreldraw/odm/2003">
 <defs>
  <style type="text/css">
   <![CDATA[
    .fil0 {fill:#02274F}
    .fil1 {fill:#FDCF00}
   ]]>
  </style>
 </defs>
 <g id="Layer_x0020_1">
  <metadata id="CorelCorpID_0Corel-Layer"/>
  <g id="_2098461488">
   <path class="fil0" d="M1156.61 1284.55c910.07,-293.55 1205.91,1247.16 378.21,1500.94 -1000.12,306.64 -1202.31,-1235.12 -378.21,-1500.94zm-1156.61 2056.74c177.13,0 381.08,0 585.03,0l6.69 -427.13c158.68,188.07 227.97,315.09 525.71,417.26 259.15,88.93 581.95,68.96 828.33,-27.94 1322.76,-520.23 811.17,-3011.34 -691.26,-2586.04 -298.15,84.4 -345.08,192.9 -512.97,347.58l-44.09 38.72c-5.28,4.67 -14.95,13.59 -23,19.67l-4.82 -1099.97c-217.43,-37.3 -440.51,-19.25 -660.71,-17.81l-8.9 3335.65z"/>
   <path class="fil0" d="M6468.79 1277.88c846.58,-282.07 1251.34,1233.06 356.09,1510.71 -966.48,299.75 -1198.8,-1229.93 -356.09,-1510.71zm-1163.5 2052.28l585.84 -2.16 1.36 -393.49c60.92,51.34 -9.39,-16.15 64.46,55.78 159.07,154.94 188.71,253.46 506.58,352.77 284.73,88.97 603.71,50.14 845.42,-69.92 955.42,-474.51 930.23,-1997.98 29.09,-2486.88 -234.61,-127.28 -554.25,-142.37 -816.49,-55.08 -345.34,114.93 -339.8,243.03 -541.75,419.05l-4.46 -1144.61 -670.07 2.35 0.03 3322.18z"/>
   <path class="fil0" d="M2692.77 890.98c71.84,162.55 93.08,133.57 204.51,264.42l213.18 232.06c787.7,-754.87 1288.29,-195.88 1131.62,134.79 -51.3,108.27 -262.55,229.26 -386.17,296.07 -679.54,367.2 -1178.66,550.69 -1203.27,1522.97 382.11,0 2190.05,53.49 2407.34,-28.87l-1.23 -561.53 -1499.29 -14.19c230.23,-561.52 1827.5,-708.92 1386.99,-1772.73 -288.62,-697 -1553.1,-679.17 -2253.68,-73z"/>
   <path class="fil1" d="M9628.35 721.13l-420.51 12.92 0.63 476.72 402.05 28.14c88.96,426.77 -71.78,1444.2 65.01,1785.83 181.88,454.24 994.49,450.38 1362.98,164.56l-121.61 -494.77c-573.17,86.59 -683.74,373.71 -618.68,-1329.55l9.96 -130.09 539.38 0.33 0 -514.09 -553.77 0 4.43 -715.41 -669.89 2.36 0.03 713.05z"/>
   <polygon class="fil1" points="8270.73,3330.09 8404.54,3343.54 8940.62,3341.29 8940.59,721.13 8270.7,723.49 "/>
  </g>
 </g>
</svg>
